<svg version="1.1" id="Layer_1" xmlns="http://www.w3.org/2000/svg" x="0" y="0" viewBox="0 0 493.1 374" xml:space="preserve"><style>.st18{fill:#fff}</style><path d="M385.5 329.4c-3.9 0-7.7-.8-10.5-2.4l-91.5-52.8c-2.7-1.6-4.2-3.8-4.2-6.2 0-2.9 2.2-5.8 6-8l88-50.8c7.1-4.1 18-4.6 24.2-1L489 261c2.7 1.6 4.2 3.8 4.2 6.2 0 2.9-2.2 5.8-6 8l-88 50.8c-4 2.2-9 3.4-13.7 3.4zm-10.4-2.8c6.1 3.5 16.8 3.1 23.8-1l88-50.8c3.7-2.1 5.8-4.9 5.8-7.7 0-2.3-1.4-4.3-4.1-5.8l-91.5-52.8c-6.1-3.5-16.8-3.1-23.8 1l-88 50.8c-3.7 2.1-5.8 4.9-5.8 7.7 0 2.3 1.4 4.3 4.1 5.8l91.5 52.8zm-268.9 2.8c-3.9 0-7.7-.8-10.5-2.4L4.2 274.2C1.5 272.6 0 270.4 0 268c0-2.9 2.2-5.8 6-8l88-50.8c7.1-4.1 18-4.6 24.2-1l91.5 52.8c2.7 1.6 4.2 3.8 4.2 6.2 0 2.9-2.2 5.8-6 8l-88 50.8c-3.9 2.2-8.9 3.4-13.7 3.4zm1.4-123.3c-4.7 0-9.6 1.1-13.5 3.4l-88 50.8C2.4 262.4.3 265.2.3 268c0 2.3 1.4 4.3 4.1 5.8l91.5 52.8c6.1 3.5 16.8 3.1 23.8-1l88-50.8c3.7-2.1 5.8-4.9 5.8-7.7 0-2.3-1.4-4.3-4.1-5.8L118 208.5c-2.8-1.6-6.5-2.4-10.4-2.4z" fill="#ffc16b"/><linearGradient id="SVGID_8_" gradientUnits="userSpaceOnUse" x1="247.404" y1="1055.625" x2="247.404" y2="906.93" gradientTransform="translate(0 -704)"><stop offset="0" stop-color="#ffa959"/><stop offset=".431" stop-color="#ffb05e"/><stop offset="1" stop-color="#ffc16b"/></linearGradient><path d="M382 284.3l-118.8-68.6c-3.9-2.3-9.2-3.4-14.8-3.4-6.7 0-13.8 1.6-19.3 4.8l-113.8 65.7c-5.3 3.1-8.3 7.1-8.2 11.1.1 3.1 2.1 6 5.7 8.1l118.8 68.6c8.7 5 24 4.4 34.1-1.4l113.8-65.7c5.4-3.1 8.4-7.2 8.2-11.3-.1-3.1-2.1-5.9-5.7-7.9z" opacity=".2" fill="url(#SVGID_8_)"/><linearGradient id="SVGID_9_" gradientUnits="userSpaceOnUse" x1="204.954" y1="975.742" x2="451.852" y2="975.742" gradientTransform="translate(0 -704)"><stop offset="0" stop-color="#ff7a59"/><stop offset=".247" stop-color="#fd7b52"/><stop offset=".603" stop-color="#f97f3f"/><stop offset="1" stop-color="#f28522"/></linearGradient><path d="M381.9 262.9l-118.8-68.6c-3.9-2.3-9.2-3.4-14.8-3.4-6.7 0-13.8 1.6-19.3 4.8l-113.8 65.7c-5.3 3.1-8.3 7.1-8.2 11.1.1 3.1 2.1 6 5.7 8.1l118.8 68.6c8.7 5 24 4.4 34.1-1.4L379.4 282c5.4-3.1 8.4-7.2 8.2-11.3-.1-3-2.1-5.8-5.7-7.8z" fill="url(#SVGID_9_)"/><linearGradient id="SVGID_10_" gradientUnits="userSpaceOnUse" x1="247.404" y1="1030.985" x2="247.404" y2="882.29" gradientTransform="translate(0 -704)"><stop offset="0" stop-color="#ffa959"/><stop offset=".431" stop-color="#ffb05e"/><stop offset="1" stop-color="#ffc16b"/></linearGradient><path d="M382 259.6L263.2 191c-3.9-2.3-9.2-3.4-14.8-3.4-6.7 0-13.8 1.6-19.3 4.8l-113.8 65.7c-5.3 3.1-8.3 7.1-8.2 11.1.1 3.1 2.1 6 5.7 8.1l118.8 68.6c8.7 5 24 4.4 34.1-1.4l113.8-65.7c5.4-3.1 8.4-7.2 8.2-11.3-.1-3.1-2.1-5.8-5.7-7.9z" fill="url(#SVGID_10_)"/><linearGradient id="SVGID_11_" gradientUnits="userSpaceOnUse" x1="128" y1="967.719" x2="322.925" y2="967.719" gradientTransform="translate(0 -704)"><stop offset="0" stop-color="#ff7a59"/><stop offset=".247" stop-color="#fd7b52"/><stop offset=".603" stop-color="#f97f3f"/><stop offset="1" stop-color="#f28522"/></linearGradient><path d="M298.4 297.4c-32.7 18.9-90.6 14.3-126.5 2.2-38.3-12.9-43.9-22.8-43.9-34.6 0-17.5 26.2-27.7 51.8-36.1 35.9-11.8 85.8-18.8 118.6.1 32.7 18.9 32.7 49.5 0 68.4z" opacity=".39" fill="url(#SVGID_11_)"/><linearGradient id="SVGID_12_" gradientUnits="userSpaceOnUse" x1="169" y1="962.7" x2="325.8" y2="962.7" gradientTransform="translate(0 -704)"><stop offset="0" stop-color="#ffa959"/><stop offset=".431" stop-color="#ffb05e"/><stop offset="1" stop-color="#ffc16b"/></linearGradient><ellipse cx="247.4" cy="258.7" rx="78.4" ry="45.3" fill="url(#SVGID_12_)"/><linearGradient id="SVGID_13_" gradientUnits="userSpaceOnUse" x1="169" y1="959.3" x2="325.8" y2="959.3" gradientTransform="translate(0 -704)"><stop offset="0" stop-color="#ff7a59"/><stop offset=".247" stop-color="#fd7b52"/><stop offset=".603" stop-color="#f97f3f"/><stop offset="1" stop-color="#f28522"/></linearGradient><ellipse cx="247.4" cy="255.3" rx="78.4" ry="45.3" fill="url(#SVGID_13_)"/><linearGradient id="SVGID_14_" gradientUnits="userSpaceOnUse" x1="171.9" y1="952.375" x2="323" y2="952.375" gradientTransform="translate(0 -704)"><stop offset="0" stop-color="#ffa959"/><stop offset=".431" stop-color="#ffb05e"/><stop offset="1" stop-color="#ffc16b"/></linearGradient><path d="M171.9 203v47.1c0 11.2 7.3 22.4 22.1 30.9 29.5 17 77.4 17 106.9 0 14.7-8.5 22-19.5 22.1-30.6V203H171.9z" fill="url(#SVGID_14_)"/><linearGradient id="SVGID_15_" gradientUnits="userSpaceOnUse" x1="192.864" y1="905.4" x2="422.63" y2="905.4" gradientTransform="translate(0 -704)"><stop offset="0" stop-color="#ffc16b"/><stop offset=".29" stop-color="#feb05b"/><stop offset=".708" stop-color="#fc9d49"/><stop offset="1" stop-color="#fc9642"/></linearGradient><ellipse cx="247.4" cy="201.4" rx="75.5" ry="43.6" fill="url(#SVGID_15_)"/><path class="st18" d="M247.3 237.5c-17.9 0-35.8-3.9-49.5-11.8-13.3-7.7-20.6-17.9-20.6-28.7 0-10.9 7.3-21 20.6-28.7 27.3-15.8 71.7-15.8 99 0 13.3 7.7 20.6 17.9 20.6 28.7 0 10.9-7.3 21-20.6 28.7l-.1-.2.1.2c-13.7 7.8-31.6 11.8-49.5 11.8zm0-80.6c-17.8 0-35.7 3.9-49.2 11.8-13.1 7.6-20.3 17.6-20.3 28.3s7.2 20.7 20.3 28.3c27.2 15.7 71.3 15.7 98.5 0 13.1-7.6 20.3-17.6 20.3-28.3s-7.2-20.7-20.3-28.3c-13.6-7.9-31.5-11.8-49.3-11.8z"/><linearGradient id="SVGID_16_" gradientUnits="userSpaceOnUse" x1="192.018" y1="915.175" x2="310.018" y2="915.175" gradientTransform="translate(0 -704)"><stop offset="0" stop-color="#ff7a59"/><stop offset=".247" stop-color="#fd7b52"/><stop offset=".603" stop-color="#f97f3f"/><stop offset="1" stop-color="#f28522"/></linearGradient><path d="M182.6 190.5v4c0 9.6 6.3 19.2 18.9 26.5 25.3 14.6 66.3 14.6 91.6 0 12.6-7.3 18.8-16.7 18.9-26.3v-4.3H182.6v.1z" fill="url(#SVGID_16_)"/><linearGradient id="SVGID_17_" gradientUnits="userSpaceOnUse" x1="247.4" y1="826.832" x2="247.4" y2="910.009" gradientTransform="translate(0 -704)"><stop offset="0" stop-color="#ffa959"/><stop offset=".431" stop-color="#ffb05e"/><stop offset="1" stop-color="#ffc16b"/></linearGradient><ellipse cx="247.4" cy="190.5" rx="64.8" ry="37.4" fill="url(#SVGID_17_)"/><linearGradient id="SVGID_18_" gradientUnits="userSpaceOnUse" x1="247.3" y1="866.404" x2="247.3" y2="900.906" gradientTransform="translate(0 -704)"><stop offset="0" stop-color="#ffa959"/><stop offset=".431" stop-color="#ffb05e"/><stop offset="1" stop-color="#ffc16b"/></linearGradient><ellipse cx="247.3" cy="190.5" rx="26.9" ry="15.5" opacity=".44" fill="url(#SVGID_18_)"/><linearGradient id="SVGID_19_" gradientUnits="userSpaceOnUse" x1="247.8" y1="873.013" x2="247.8" y2="898.786" gradientTransform="translate(0 -704)"><stop offset="0" stop-color="#ffa959"/><stop offset=".431" stop-color="#ffb05e"/><stop offset="1" stop-color="#ffc16b"/></linearGradient><ellipse cx="247.8" cy="190" rx="20.1" ry="11.6" fill="url(#SVGID_19_)"/><linearGradient id="SVGID_20_" gradientUnits="userSpaceOnUse" x1="247.4" y1="719.116" x2="247.4" y2="955.978" gradientTransform="translate(0 -704)"><stop offset=".225" stop-color="#fff" stop-opacity="0"/><stop offset=".356" stop-color="#fff7ec" stop-opacity=".169"/><stop offset=".621" stop-color="#ffe2bb" stop-opacity=".511"/><stop offset=".994" stop-color="#ffc26c" stop-opacity=".992"/><stop offset="1" stop-color="#ffc16b"/></linearGradient><path d="M312.2 10.2H182.6v179.9c0 9.6 6.3 19.1 19 26.4 25.3 14.6 66.3 14.6 91.6 0 12.6-7.3 19-16.9 19-26.4V10.2z" fill="url(#SVGID_20_)"/><linearGradient id="SVGID_21_" gradientUnits="userSpaceOnUse" x1="270.2" y1="719.145" x2="270.2" y2="956.006" gradientTransform="translate(0 -704)"><stop offset=".225" stop-color="#fff" stop-opacity="0"/><stop offset=".356" stop-color="#fff7ec" stop-opacity=".169"/><stop offset=".621" stop-color="#ffe2bb" stop-opacity=".511"/><stop offset=".994" stop-color="#ffc26c" stop-opacity=".992"/><stop offset="1" stop-color="#ffc16b"/></linearGradient><path d="M291.8 10.2h-43.2v217.3c15.6-.1 31-3.5 43.2-10.1V10.2z" fill="url(#SVGID_21_)"/><path class="st18" d="M287 284.1l.3-.2c1-.6 1.9-2.2 1.9-3.6v-36.9c0-1.4-.8-2-1.9-1.4l-.3.2c-1 .6-1.9 2.2-1.9 3.6v36.9c0 1.4.9 2 1.9 1.4z"/><linearGradient id="SVGID_22_" gradientUnits="userSpaceOnUse" x1="287.15" y1="999.1" x2="287.15" y2="965.37" gradientTransform="translate(0 -704)"><stop offset="0" stop-color="#ff7a59"/><stop offset=".247" stop-color="#fd7b52"/><stop offset=".603" stop-color="#f97f3f"/><stop offset="1" stop-color="#f28522"/></linearGradient><path d="M287 284.1l.3-.2c1-.6 1.9-2.2 1.9-3.6v-11.2c0-1.4-.8-2-1.9-1.4l-.3.3c-1 .6-1.9 2.2-1.9 3.6v11.2c0 1.3.9 1.9 1.9 1.3z" fill="url(#SVGID_22_)"/><path class="st18" d="M303.1 238.1c0 .4.3.6.7.4.4-.2.7-.7.7-1.1 0-.4-.3-.6-.7-.4-.4.1-.7.6-.7 1.1zm-5 2.9c0 .4.3.6.7.4.4-.2.7-.7.7-1.1 0-.4-.3-.6-.7-.4-.4.1-.7.6-.7 1.1zm5 2.5c0 .4.3.6.7.4.4-.2.7-.7.7-1.1 0-.4-.3-.6-.7-.4s-.7.7-.7 1.1zm-5 2.9c0 .4.3.6.7.4.4-.2.7-.7.7-1.1 0-.4-.3-.6-.7-.4s-.7.7-.7 1.1z"/><linearGradient id="SVGID_23_" gradientUnits="userSpaceOnUse" x1="363.4" y1="910.162" x2="363.4" y2="985.719" gradientTransform="translate(0 -704)"><stop offset=".225" stop-color="#fff" stop-opacity="0"/><stop offset=".356" stop-color="#fff7ec" stop-opacity=".169"/><stop offset=".621" stop-color="#ffe2bb" stop-opacity=".511"/><stop offset=".994" stop-color="#ffc26c" stop-opacity=".992"/><stop offset="1" stop-color="#ffc16b"/></linearGradient><path d="M372.3 204.6h-17.8v64.2c0 1.3.9 2.6 2.6 3.6 3.5 2 9.1 2 12.6 0 1.7-1 2.6-2.3 2.6-3.6v-64.2z" fill="url(#SVGID_23_)"/><path class="st18" d="M357.1 272.4c3.5 2 9.1 2 12.6 0s3.5-5.3 0-7.3-9.1-2-12.6 0-3.5 5.3 0 7.3z"/><linearGradient id="SVGID_24_" gradientUnits="userSpaceOnUse" x1="205.084" y1="1071.585" x2="301.77" y2="1010.971" gradientTransform="translate(0 -704)"><stop offset="0" stop-color="#ffa959"/><stop offset=".431" stop-color="#ffb05e"/><stop offset="1" stop-color="#ffc16b"/></linearGradient><path d="M262.5 326l23.3-13.5 3.5 2L266 328l-3.5-2zm-2.2 5.3l3.5-2-3.5-2-3.5 2 3.5 2zm-5.8 3.3l3.5-2-3.5-2-3.5 2 3.5 2zm-5.3 3.1l3.5-2-3.5-2-3.5 2 3.5 2zm22.4-6.5l23.3-13.5-3.5-2-23.4 13.5 3.6 2zm-5.8 3.3l3.5-2-3.5-2-3.5 2 3.5 2zm-5.8 3.3l3.5-2-3.5-2-3.5 2 3.5 2zm-5.3 3.1l3.5-2-3.5-2-3.5 2 3.5 2z" fill="url(#SVGID_24_)"/><linearGradient id="SVGID_25_" gradientUnits="userSpaceOnUse" x1="-3084.703" y1="8495.603" x2="-2993.803" y2="8495.603" gradientTransform="rotate(90 2778.75 5914.653)"><stop offset=".101" stop-color="#fff" stop-opacity=".1"/><stop offset=".199" stop-color="#fff2df" stop-opacity=".322"/><stop offset=".414" stop-color="#ffcf8d" stop-opacity=".806"/><stop offset=".5" stop-color="#ffc16b"/><stop offset="1" stop-color="#fff" stop-opacity=".1"/></linearGradient><path fill="url(#SVGID_25_)" d="M197.1 51.2h1.4v90.9h-1.4z"/><linearGradient id="SVGID_26_" gradientUnits="userSpaceOnUse" x1="-3104.903" y1="8393.804" x2="-3020.403" y2="8393.804" gradientTransform="rotate(90 2778.75 5914.653)"><stop offset=".101" stop-color="#fff" stop-opacity=".1"/><stop offset=".199" stop-color="#fff2df" stop-opacity=".322"/><stop offset=".414" stop-color="#ffcf8d" stop-opacity=".806"/><stop offset=".5" stop-color="#ffc16b"/><stop offset="1" stop-color="#fff" stop-opacity=".1"/></linearGradient><path fill="url(#SVGID_26_)" d="M298.9 31h1.4v84.5h-1.4z"/><linearGradient id="SVGID_27_" gradientUnits="userSpaceOnUse" x1="-3017.903" y1="8473.203" x2="-2932.603" y2="8473.203" gradientTransform="rotate(90 2778.75 5914.653)"><stop offset=".101" stop-color="#fff" stop-opacity=".1"/><stop offset=".199" stop-color="#fff2df" stop-opacity=".322"/><stop offset=".414" stop-color="#ffcf8d" stop-opacity=".806"/><stop offset=".5" stop-color="#ffc16b"/><stop offset="1" stop-color="#fff" stop-opacity=".1"/></linearGradient><path fill="url(#SVGID_27_)" d="M219.5 118h1.4v85.3h-1.4z"/><linearGradient id="SVGID_28_" gradientUnits="userSpaceOnUse" x1="-3135.903" y1="8434.903" x2="-3026.403" y2="8434.903" gradientTransform="rotate(90 2778.75 5914.653)"><stop offset=".101" stop-color="#fff" stop-opacity=".1"/><stop offset=".199" stop-color="#fff2df" stop-opacity=".322"/><stop offset=".414" stop-color="#ffcf8d" stop-opacity=".806"/><stop offset=".5" stop-color="#ffc16b"/><stop offset="1" stop-color="#fff" stop-opacity=".1"/></linearGradient><path fill="url(#SVGID_28_)" d="M257.8 0h1.4v109.5h-1.4z"/><path class="st18" d="M208.6 167.6c0 .6-.5 1-1 1s-1-.5-1-1c0-.6.5-1 1-1s1 .4 1 1zm57.7 45.8c0 .6-.5 1-1 1-.6 0-1-.5-1-1 0-.6.5-1 1-1s1 .4 1 1z"/><linearGradient id="SVGID_29_" gradientUnits="userSpaceOnUse" x1="-120.336" y1="2764.095" x2="-120.336" y2="2729.498" gradientTransform="matrix(.866 .5 0 1.1547 308.661 -2846.288)"><stop offset="0" stop-color="#ff7a59"/><stop offset=".247" stop-color="#fd7b52"/><stop offset=".603" stop-color="#f97f3f"/><stop offset="1" stop-color="#f28522"/></linearGradient><path d="M204.4 275.4c-.3-.2-.4-.5-.4-.8v-31.2c0-.3.2-.4.4-.3h.1c.2.1.4.5.4.7V275c-.1.4-.3.6-.5.4z" fill="url(#SVGID_29_)"/><linearGradient id="SVGID_30_" gradientUnits="userSpaceOnUse" x1="-117.103" y1="2764.095" x2="-117.103" y2="2729.498" gradientTransform="matrix(.866 .5 0 1.1547 308.661 -2846.288)"><stop offset="0" stop-color="#ff7a59"/><stop offset=".247" stop-color="#fd7b52"/><stop offset=".603" stop-color="#f97f3f"/><stop offset="1" stop-color="#f28522"/></linearGradient><path d="M207.2 277c-.3-.2-.4-.5-.4-.8V245c0-.3.2-.4.4-.3h.1c.2.1.4.5.4.7v31.2c-.1.4-.3.5-.5.4z" fill="url(#SVGID_30_)"/><linearGradient id="SVGID_31_" gradientUnits="userSpaceOnUse" x1="-113.985" y1="2764.095" x2="-113.985" y2="2729.498" gradientTransform="matrix(.866 .5 0 1.1547 308.661 -2846.288)"><stop offset="0" stop-color="#ff7a59"/><stop offset=".247" stop-color="#fd7b52"/><stop offset=".603" stop-color="#f97f3f"/><stop offset="1" stop-color="#f28522"/></linearGradient><path d="M209.9 278.6c-.3-.2-.4-.5-.4-.8v-31.2c0-.3.2-.4.4-.3h.1c.2.1.4.5.4.7v31.2c-.1.4-.3.5-.5.4z" fill="url(#SVGID_31_)"/><linearGradient id="SVGID_32_" gradientUnits="userSpaceOnUse" x1="-110.752" y1="2764.095" x2="-110.752" y2="2729.498" gradientTransform="matrix(.866 .5 0 1.1547 308.661 -2846.288)"><stop offset="0" stop-color="#ff7a59"/><stop offset=".247" stop-color="#fd7b52"/><stop offset=".603" stop-color="#f97f3f"/><stop offset="1" stop-color="#f28522"/></linearGradient><path d="M212.7 280.2c-.3-.2-.4-.5-.4-.8v-31.2c0-.3.2-.4.4-.3h.1c.2.1.4.5.4.7v31.2c-.1.4-.3.5-.5.4z" fill="url(#SVGID_32_)"/></svg>